<svg width="349" height="189" viewBox="0 0 349 189" fill="none" xmlns="http://www.w3.org/2000/svg">
<path opacity="0.7" fill-rule="evenodd" clip-rule="evenodd" d="M57.3255 94.6397H86.1857L115.046 50.9121H86.1857L57.3255 94.6397ZM115.044 138.368H86.1834L57.3232 94.6406H86.1834L115.044 138.368Z" fill="white"/>
<path d="M79.1919 94.6397H108.052L79.1919 50.9121H50.3317L79.1919 94.6397Z" fill="white"/>
<path d="M79.1903 138.368H50.3301L79.1903 94.6401H108.05L79.1903 138.368Z" fill="white"/>
<path d="M129.331 94.2301C129.331 90.2821 130.213 86.7557 131.976 83.6509C133.777 80.5078 136.211 78.0739 139.278 76.349C142.383 74.5858 145.851 73.7042 149.684 73.7042C154.169 73.7042 158.098 74.8541 161.471 77.1539C164.844 79.4538 167.201 82.6352 168.543 86.6982H159.286C158.366 84.7817 157.063 83.3443 155.377 82.386C153.728 81.4278 151.812 80.9486 149.627 80.9486C147.289 80.9486 145.2 81.5044 143.36 82.616C141.558 83.6893 140.14 85.2225 139.105 87.2157C138.109 89.2088 137.61 91.547 137.61 94.2301C137.61 96.8749 138.109 99.2131 139.105 101.245C140.14 103.238 141.558 104.79 143.36 105.902C145.2 106.975 147.289 107.512 149.627 107.512C151.812 107.512 153.728 107.032 155.377 106.074C157.063 105.078 158.366 103.621 159.286 101.705H168.543C167.201 105.806 164.844 109.006 161.471 111.306C158.136 113.568 154.207 114.699 149.684 114.699C145.851 114.699 142.383 113.836 139.278 112.111C136.211 110.348 133.777 107.914 131.976 104.809C130.213 101.705 129.331 98.1781 129.331 94.2301Z" fill="white"/>
<path d="M187.262 114.871C184.196 114.871 181.436 114.2 178.983 112.859C176.53 111.479 174.594 109.543 173.176 107.052C171.796 104.56 171.106 101.685 171.106 98.4273C171.106 95.1692 171.815 92.2944 173.233 89.803C174.69 87.3115 176.664 85.395 179.155 84.0534C181.647 82.6735 184.426 81.9836 187.492 81.9836C190.559 81.9836 193.338 82.6735 195.829 84.0534C198.321 85.395 200.276 87.3115 201.694 89.803C203.15 92.2944 203.879 95.1692 203.879 98.4273C203.879 101.685 203.131 104.56 201.636 107.052C200.18 109.543 198.187 111.479 195.657 112.859C193.165 114.2 190.367 114.871 187.262 114.871ZM187.262 107.857C188.719 107.857 190.08 107.512 191.345 106.822C192.648 106.093 193.683 105.02 194.449 103.602C195.216 102.184 195.599 100.459 195.599 98.4273C195.599 95.3992 194.794 93.0802 193.184 91.4703C191.613 89.8221 189.677 88.998 187.377 88.998C185.078 88.998 183.142 89.8221 181.57 91.4703C180.037 93.0802 179.27 95.3992 179.27 98.4273C179.27 101.455 180.018 103.794 181.513 105.442C183.046 107.052 184.963 107.857 187.262 107.857Z" fill="white"/>
<path d="M215.533 107.972H224.318V114.354H207.483V71.8066H215.533V107.972Z" fill="white"/>
<path d="M226.464 98.3121C226.464 95.0924 227.097 92.2367 228.361 89.7453C229.665 87.2538 231.409 85.3373 233.594 83.9957C235.817 82.6541 238.289 81.9834 241.011 81.9834C243.387 81.9834 245.457 82.4625 247.22 83.4207C249.022 84.379 250.459 85.5864 251.532 87.043V82.5008H259.639V114.353H251.532V109.696C250.497 111.191 249.06 112.437 247.22 113.433C245.419 114.392 243.33 114.871 240.953 114.871C238.27 114.871 235.817 114.181 233.594 112.801C231.409 111.421 229.665 109.485 228.361 106.994C227.097 104.464 226.464 101.57 226.464 98.3121ZM251.532 98.4271C251.532 96.4722 251.149 94.8049 250.382 93.425C249.616 92.0068 248.581 90.9335 247.278 90.2052C245.974 89.4386 244.575 89.0553 243.08 89.0553C241.585 89.0553 240.206 89.4195 238.941 90.1477C237.676 90.876 236.641 91.9493 235.836 93.3675C235.069 94.7474 234.686 96.3956 234.686 98.3121C234.686 100.229 235.069 101.915 235.836 103.372C236.641 104.79 237.676 105.882 238.941 106.649C240.244 107.416 241.624 107.799 243.08 107.799C244.575 107.799 245.974 107.435 247.278 106.706C248.581 105.94 249.616 104.867 250.382 103.487C251.149 102.068 251.532 100.382 251.532 98.4271Z" fill="white"/>
<path d="M273.25 87.158C274.285 85.6247 275.703 84.379 277.505 83.4207C279.345 82.4625 281.434 81.9834 283.772 81.9834C286.493 81.9834 288.947 82.6541 291.131 83.9957C293.355 85.3373 295.099 87.2538 296.364 89.7453C297.667 92.1984 298.318 95.054 298.318 98.3121C298.318 101.57 297.667 104.464 296.364 106.994C295.099 109.485 293.355 111.421 291.131 112.801C288.947 114.181 286.493 114.871 283.772 114.871C281.395 114.871 279.306 114.411 277.505 113.491C275.742 112.533 274.324 111.306 273.25 109.811V114.353H265.201V71.8066H273.25V87.158ZM290.096 98.3121C290.096 96.3956 289.694 94.7474 288.889 93.3675C288.122 91.9493 287.088 90.876 285.784 90.1477C284.519 89.4195 283.14 89.0553 281.645 89.0553C280.188 89.0553 278.808 89.4386 277.505 90.2052C276.24 90.9335 275.205 92.0068 274.4 93.425C273.634 94.8432 273.25 96.5106 273.25 98.4271C273.25 100.344 273.634 102.011 274.4 103.429C275.205 104.847 276.24 105.94 277.505 106.706C278.808 107.435 280.188 107.799 281.645 107.799C283.14 107.799 284.519 107.416 285.784 106.649C287.088 105.882 288.122 104.79 288.889 103.372C289.694 101.953 290.096 100.267 290.096 98.3121Z" fill="white"/>
</svg>
